<?xml version="1.0" encoding="UTF-8"?>
<svg id="Layer_1" data-name="Layer 1" xmlns="http://www.w3.org/2000/svg" viewBox="0 0 208.33 208.33">
  <defs>
    <style>
      .cls-1 {
        fill: #fff;
      }
    </style>
  </defs>
  <circle cx="104.17" cy="104.17" r="104.17"/>
  <g>
    <path class="cls-1" d="M136.52,50.54c22.86,3.8,29.23,37.73,8.95,50.12l-12.05,4.73c8.89,1.7,18.38,10.42,21.76,18.73.83,2.04,3.12,10.22,3.12,11.84v21.82h-37.33c-.3-3.8.51-8.07-.07-11.78-1.5-9.53-16.18-15.39-24.26-10.74-3.67,2.11-20.75,22.52-22.33,22.52h-24.27v-36.79c0-1.15,14.6-13.55,16.09-16.38.45-2.56-16.09-16.03-16.09-17.29v-36.79h86.49Z"/>
    <path d="M117.24,102.93c.4.41.29,1.75-.77,2.57-2.86,2.21-8.11,3.08-11.67,6.78-2.9,3.01-5.94,8.87-6.24,13.08l-5.67-9.89c-4.02-4.52-9.16-9.67-15.47-10.07,8.69-6.2,17.47-10.87,19.92-22.43l7.39,13.14c1.32,3.85,12,6.3,12.5,6.82Z"/>
  </g>
</svg>