<?xml version="1.0" encoding="UTF-8"?>
<svg id="Layer_1" data-name="Layer 1" xmlns="http://www.w3.org/2000/svg" viewBox="0 0 272.95 416.89">
  <defs>
    <style>
      .cls-1 {
        fill: #fff;
      }

      .cls-2 {
        fill: #010101;
      }
    </style>
  </defs>
  <path class="cls-2" d="M57.01.51c23.04,2.43,29.55,29.65,12.8,43.81l-12.29,5.15c10.46,4.84,17.5,18.28,23.35,28.08,1.64,2.75,3.95,5.79,4.57,8.91h-21.94c-4.01-7.28-8.83-15.03-13.74-21.71-6.72-9.14-9.94-15.41-23.16-13.27v34.98H8.64v-44.48c0-4.85,10.22-15.8,15.96-15.5-1.58-2.71-5.04-3.1-7.48-4.99C10.51,16.38,7.66,8.84,8.64.51c15.45,1.19,33.2-1.6,48.37,0Z"/>
  <polygon class="cls-2" points="270.95 .51 270.95 15.5 225.07 15.5 225.07 33.49 267.96 33.49 267.96 49.49 225.07 49.49 225.07 71.48 272.95 71.48 272.95 86.47 207.12 86.47 207.12 .51 270.95 .51"/>
  <path class="cls-2" d="M138.3.51l20.46,59.98L179.19.51h19.95l-30.01,84.38c-2.45,3.39-15.75.72-20.25,1.65L118.35.51h19.95Z"/>
  <rect class="cls-2" x="93.42" y=".51" width="18.95" height="85.96"/>
  <circle cx="104.17" cy="312.72" r="104.17"/>
  <g>
    <path class="cls-1" d="M136.52,259.09c22.86,3.8,29.23,37.73,8.95,50.12l-12.05,4.73c8.89,1.7,18.38,10.42,21.76,18.73.83,2.04,3.12,10.22,3.12,11.84v21.82h-37.33c-.3-3.8.51-8.07-.07-11.78-1.5-9.53-16.18-15.39-24.26-10.74-3.67,2.11-20.75,22.52-22.33,22.52h-24.27v-36.79c0-1.15,14.6-13.55,16.09-16.38.45-2.56-16.09-16.03-16.09-17.29v-36.79h86.49Z"/>
    <path d="M117.24,311.48c.4.41.29,1.75-.77,2.57-2.86,2.21-8.11,3.08-11.67,6.78-2.9,3.01-5.94,8.87-6.24,13.08l-5.67-9.89c-4.02-4.52-9.16-9.67-15.47-10.07,8.69-6.2,17.47-10.87,19.92-22.43l7.39,13.14c1.32,3.85,12,6.3,12.5,6.82Z"/>
  </g>
</svg>